# xmcd
#
# Track frame offsets:
#	150
#	15269
#	28201
#	42638
#	56740
#	69754
#	83131
#	99727
#	115890
#	130730
#	147381
#	157443
#	171531
#	187137
#	204319
#	219200
#	238541
#	258230
#	275355
#	291964
#	313074
#	331466
#	345777
#
# Disc length: 4777 seconds
#
# Revision: 0
# Processed by: cddbd v1.5.2PL0 Copyright (c) Steve Scherf et al.
# Submitted via: EZCDAudioConverter 4.0.5.1
#
DISCID=5c12a717
DTITLE=Rionegro and Solimões - (Rionegro and Solimões) Grandes Sucessos
DYEAR=2005
DGENRE=Sertanejo
TTITLE0=Só Alegria
TTITLE1=Bate O Pé
TTITLE2=De São Paulo A Belém
TTITLE3=Peão Apaixonado
TTITLE4=Tô Doidão
TTITLE5=Saudade Pulou No Peito
TTITLE6=A Gente Se Entrega
TTITLE7=Ô De Casa Ô De Fora
TTITLE8=Trem Bão
TTITLE9=Casa Cheia
TTITLE10=Meu Amor
TTITLE11=Deixa A Poeira Subir
TTITLE12=De Cara Cheia
TTITLE13=Depois De Você
TTITLE14=Como Esquecer Um Amor
TTITLE15=Laço Da Paixão
TTITLE16=Frio Da Madrugada
TTITLE17=Saudade Aperta
TTITLE18=Como Te Esquecer
TTITLE19=Só Lembranças
TTITLE20=Lenha
TTITLE21=Solidão e Saudade
TTITLE22=Bobeou, Tá Na Poeira
EXTD=
EXTT0=
EXTT1=
EXTT2=
EXTT3=
EXTT4=
EXTT5=
EXTT6=
EXTT7=
EXTT8=
EXTT9=
EXTT10=
EXTT11=
EXTT12=
EXTT13=
EXTT14=
EXTT15=
EXTT16=
EXTT17=
EXTT18=
EXTT19=
EXTT20=
EXTT21=
EXTT22=
PLAYORDER=
